<?xml version="1.0" encoding="UTF-8" standalone="no"?>
<!-- Created with Inkscape (http://www.inkscape.org/) -->

<svg
   xmlns:dc="http://purl.org/dc/elements/1.1/"
   xmlns:cc="http://creativecommons.org/ns#"
   xmlns:rdf="http://www.w3.org/1999/02/22-rdf-syntax-ns#"
   xmlns:svg="http://www.w3.org/2000/svg"
   xmlns="http://www.w3.org/2000/svg"
   xmlns:sodipodi="http://sodipodi.sourceforge.net/DTD/sodipodi-0.dtd"
   xmlns:inkscape="http://www.inkscape.org/namespaces/inkscape"
   version="1.1"
   id="svg885"
   width="522.23163"
   height="525.4444"
   viewBox="0 0 522.23163 525.4444"
   sodipodi:docname="circled.svg"
   inkscape:version="0.92.4 (5da689c313, 2019-01-14)">
  <metadata
     id="metadata891">
    <rdf:RDF>
      <cc:Work
         rdf:about="">
        <dc:format>image/svg+xml</dc:format>
        <dc:type
           rdf:resource="http://purl.org/dc/dcmitype/StillImage" />
        <dc:title></dc:title>
      </cc:Work>
    </rdf:RDF>
  </metadata>
  <defs
     id="defs889" />
  <sodipodi:namedview
     pagecolor="#ffffff"
     bordercolor="#666666"
     borderopacity="1"
     objecttolerance="10"
     gridtolerance="10"
     guidetolerance="10"
     inkscape:pageopacity="0"
     inkscape:pageshadow="2"
     inkscape:window-width="1920"
     inkscape:window-height="1025"
     id="namedview887"
     showgrid="false"
     inkscape:zoom="1.100435"
     inkscape:cx="223.04324"
     inkscape:cy="294.15261"
     inkscape:window-x="0"
     inkscape:window-y="27"
     inkscape:window-maximized="1"
     inkscape:current-layer="svg885" />
  <path
     style="fill:#000000;stroke-width:1.33333325"
     d="m 240.18226,502.50155 c -4.96073,-1.16045 -12.94131,-1.49328 -24.66667,-1.02868 -17.09236,0.67724 -17.52796,0.62201 -31.33333,-3.97272 -18.94132,-6.30409 -30.9209,-10.96459 -35.78061,-13.91994 l -4.04863,-2.46212 10.91462,0.2632 c 6.00305,0.14474 16.74346,1.53069 23.86759,3.07986 24.00096,5.21911 55.57706,6.01196 81.04703,2.03503 15.39446,-2.40372 34.33237,-6.21844 36.33504,-7.31908 1.28426,-0.70581 8.16162,-3.46599 15.28301,-6.13372 7.12139,-2.66773 19.36713,-8.06387 27.21278,-11.9914 7.92563,-3.96757 15.17763,-6.79069 16.3189,-6.35275 1.32585,0.50879 4.1263,-1.34392 7.89904,-5.22577 3.21473,-3.30771 10.89386,-9.78965 17.06476,-14.40431 13.95022,-10.43214 39.28809,-35.65887 50.03673,-49.81729 23.76514,-31.3041 39.87724,-68.10701 46.56388,-106.36023 2.85797,-16.35003 2.10574,-55.97984 -1.35983,-71.63976 -7.96149,-35.97562 -23.54869,-65.89074 -47.54191,-91.24289 -31.06201,-32.82131 -64.43491,-50.51212 -115.14574,-61.03819 -12.88349,-2.67423 -18.47617,-3.04114 -46,-3.01782 -27.30143,0.0231 -33.22059,0.41571 -45.99999,3.05085 -26.55424,5.47553 -48.53032,13.59117 -69.71691,25.74608 -19.03844,10.92249 -28.35345,18.32745 -48.28309,38.38261 -40.418191,40.67274 -64.215121,80.91197 -72.613954,122.78603 -8.975699,44.7501 -9.965467,47.99999 -14.618626,47.99999 -6.9943838,0 -13.2047429,-20.7166 -12.4264269,-41.45223 0.91048,-24.25671 8.0747099,-50.50772 22.7627629,-83.40683 5.906231,-13.2291 8.601794,-17.58708 14.729403,-23.81337 4.1251,-4.19155 7.50018,-8.10007 7.50018,-8.68561 0,-1.17848 15.20436,-19.56925 34.66666,-41.93183 31.257191,-35.91513 45.071841,-47.55342 71.333331,-60.09545 20.56706,-9.82247 34.36668,-13.92125 66,-19.603389 10.82627,-1.9446703 71.33892,-2.8218203 79.33333,-1.1499703 3.66667,0.7668103 11.79743,2.2702603 18.06836,3.3410103 12.88439,2.199989 49.03472,14.633839 63.01318,21.673279 41.28457,20.79057 75.73387,55.60988 97.41147,98.45773 12.04173,23.80166 18.48454,45.58482 24.84469,84 2.07348,12.5238 1.07805,48.56978 -1.80284,65.28374 -9.64868,55.97831 -34.32604,106.47872 -68.76867,140.73006 -16.2749,16.18452 -37.44582,31.51366 -73.7275,53.38356 -15.68803,9.45644 -17.53975,10.23509 -24.66667,10.37235 -10.40301,0.20033 -24.77257,3.40369 -29.31978,6.53616 -6.33915,4.36688 -11.22764,5.59132 -25.71891,6.44192 -8.44006,0.4954 -15.17278,1.56912 -16.95309,2.70364 -3.5092,2.23628 -11.61334,2.16098 -21.71357,-0.20175 z m -75.3275,-17.92577 c 0.45641,-0.73852 -0.13406,-1.71264 -1.31216,-2.16472 -2.55286,-0.97963 -3.97562,0.0999 -2.7485,2.08543 1.10718,1.79144 2.97988,1.82801 4.06066,0.0793 z m -29.33916,2.88393 C 115.748,477.9409 85.515599,458.27555 85.515599,454.93609 c 0,-2.62178 4.15211,-0.22179 13.33333,7.7069 10.683491,9.22602 21.153211,15.27554 26.436891,15.27554 3.58207,0 26.89644,12.80022 26.89644,14.76686 0,2.25825 -3.22433,1.24729 -16.66666,-5.22568 z m 3,-11.79362 c -1.28334,-0.33536 -2.33334,-1.23082 -2.33334,-1.98987 0,-1.57005 6.59728,-0.28896 8.6,1.66999 1.3189,1.29008 -1.92122,1.45546 -6.26666,0.31988 z M 60.342179,428.58467 c -2.35707,-2.93304 -3.72851,-5.33281 -3.04766,-5.33281 1.48124,0 8.74193,9.25693 7.9118,10.08705 -0.31822,0.31823 -2.50708,-1.82118 -4.86414,-4.75424 z M 19.059462,345.91853 c 0,-1.83333 0.302631,-2.58333 0.672515,-1.66667 0.369882,0.91667 0.369882,2.41667 0,3.33334 -0.369884,0.91666 -0.672515,0.16666 -0.672515,-1.66667 z m -4.623018,-14.24696 c -3.027658,-9.63396 -3.854488,-14.07542 -2.459847,-13.21348 1.540612,0.95215 6.213086,17.89747 5.21126,18.89929 -0.403643,0.40364 -1.64178,-2.15497 -2.751413,-5.68581 z M 9.8249402,308.5852 c 0,-2.56667 0.2743928,-3.61667 0.6097638,-2.33333 0.335369,1.28333 0.335369,3.38333 0,4.66666 -0.335371,1.28334 -0.6097638,0.23334 -0.6097638,-2.33333 z"
     id="path895"
     inkscape:connector-curvature="0" />
  <path
     style="fill:none;fill-opacity:1;stroke:#666666;stroke-width:56.85921097;stroke-linecap:square;stroke-linejoin:miter;stroke-miterlimit:4;stroke-dasharray:none;stroke-opacity:1"
     id="path938"
     sodipodi:type="arc"
     sodipodi:cx="258.95581"
     sodipodi:cy="263.27576"
     sodipodi:rx="234.53815"
     sodipodi:ry="232.61044"
     sodipodi:start="3.0105164"
     sodipodi:end="3.006679"
     d="M 26.429579,293.67823 A 234.53815,232.61044 0 0 1 228.07832,32.689965 234.53815,232.61044 0 0 1 491.4228,232.43086 234.53815,232.61044 0 0 1 290.27933,493.80237 234.53815,232.61044 0 0 1 26.548924,294.56297 L 258.95581,263.27576 Z" />
</svg>
