<?xml version="1.0" encoding="UTF-8" standalone="no"?>
<!-- Created with Inkscape (http://www.inkscape.org/) -->

<svg
   xmlns:dc="http://purl.org/dc/elements/1.1/"
   xmlns:cc="http://creativecommons.org/ns#"
   xmlns:rdf="http://www.w3.org/1999/02/22-rdf-syntax-ns#"
   xmlns:svg="http://www.w3.org/2000/svg"
   xmlns="http://www.w3.org/2000/svg"
   xmlns:sodipodi="http://sodipodi.sourceforge.net/DTD/sodipodi-0.dtd"
   xmlns:inkscape="http://www.inkscape.org/namespaces/inkscape"
   version="1.1"
   id="svg2"
   width="157.24748"
   height="176.96564"
   viewBox="0 0 157.24748 176.96564"
   sodipodi:docname="check2.svg"
   inkscape:version="0.92.4 (5da689c313, 2019-01-14)">
  <metadata
     id="metadata8">
    <rdf:RDF>
      <cc:Work
         rdf:about="">
        <dc:format>image/svg+xml</dc:format>
        <dc:type
           rdf:resource="http://purl.org/dc/dcmitype/StillImage" />
        <dc:title />
      </cc:Work>
    </rdf:RDF>
  </metadata>
  <defs
     id="defs6" />
  <sodipodi:namedview
     pagecolor="#ffffff"
     bordercolor="#666666"
     borderopacity="1"
     objecttolerance="10"
     gridtolerance="10"
     guidetolerance="10"
     inkscape:pageopacity="0"
     inkscape:pageshadow="2"
     inkscape:window-width="1920"
     inkscape:window-height="1025"
     id="namedview4"
     showgrid="false"
     inkscape:zoom="5.283582"
     inkscape:cx="54.142104"
     inkscape:cy="86.630611"
     inkscape:window-x="0"
     inkscape:window-y="27"
     inkscape:window-maximized="1"
     inkscape:current-layer="svg2" />
  <path
     style="fill:#000000;stroke-width:1.33333337"
     d="M 56.56434,173.7067 C 39.610117,150.24872 22.812357,126.55237 8.5450169,101.34135 c -4.284737,-9.454278 5.1453541,3.38731 6.6377751,6.35156 3.580931,8.11017 9.945618,14.10371 14.684456,21.61118 9.695701,14.49773 19.862617,28.67038 30.026242,42.84138 7.307519,-13.49023 15.220872,-26.66717 22.402676,-40.20436 -3.3707,2.97486 -7.913734,12.3903 -11.468296,18.07648 -3.683443,6.43776 -7.366887,12.87552 -11.05033,19.31328 C 40.824595,144.22382 23.301762,117.98042 7.6946368,90.664262 5.3028218,85.299598 -1.8397088,72.513866 0.44462372,70.92492 4.6482676,75.387507 7.2394161,81.705374 12.083982,85.316981 c -2.2703197,-4.349916 2.699993,-9.83683 2.068097,-1.943628 2.214444,7.676523 11.532528,12.275176 14.742154,20.473627 4.843521,6.10561 9.257973,15.71194 14.334892,19.79852 -3.364373,-7.92953 -7.870672,-15.68849 -12.71537,-22.85907 -6.11421,-11.203108 -13.134136,-21.998164 -18.194932,-33.746141 -1.247547,-5.217956 9.062637,13.3608 4.3826,1.709227 -2.195758,-3.576446 -2.137956,-11.365133 0.749881,-3.750927 2.287496,2.812095 4.828715,7.494342 5.09157,9.181473 3.672537,2.577276 7.360563,9.175202 9.715426,14.430015 3.025608,3.399029 4.66175,12.402493 6.40441,13.425033 1.845503,-1.24456 1.699648,8.45456 5.459184,5.45941 -2.412254,-7.05548 -7.503481,-13.253192 -9.060985,-20.492931 6.933282,1.996846 7.769484,13.057341 13.154361,18.060991 2.705504,5.12757 5.827852,10.01648 8.87034,14.94686 5.577875,-7.70424 11.568945,-15.06749 16.428771,-23.274878 9.785898,-14.535875 21.804995,-27.38221 31.867349,-41.731244 7.45644,-10.232898 15.3301,-20.217721 22.92323,-30.298787 1.59503,-6.257713 6.67431,-10.842493 12.62402,-12.222238 C 143.04156,8.2055697 150.47173,2.8535759 155.52094,0 c 0.68525,6.315642 -8.89845,13.731193 -9.33435,18.364899 4.61369,-4.008901 7.04295,-0.739287 3.17202,3.507122 -3.0053,3.486805 -1.17931,6.998546 1.13076,1.583648 1.50798,-4.401894 10.37675,-8.822352 5.09934,-1.03915 -5.91903,12.653821 -14.69433,23.611868 -20.79082,36.154025 -5.06785,9.533364 -12.93374,17.171697 -18.49754,26.419054 -19.376604,28.733352 -36.445835,58.920202 -53.67882,88.956732 -1.985556,4.60542 -3.552387,3.46964 -6.05719,-0.23963 z m 30.07528,-48.90762 c -5.165082,2.94518 -3.760965,8.05727 0,0 z"
     id="path819"
     inkscape:connector-curvature="0" />
  <path
     style="fill:#000000;stroke-width:1.33333337"
     d=""
     id="path817"
     inkscape:connector-curvature="0" />
  <path
     style="fill:none;stroke:#ff0000;stroke-width:1px;stroke-linecap:butt;stroke-linejoin:miter;stroke-opacity:1"
     d="M 0.44462372,70.92492 C 23.1763,98.831672 45.100537,126.89671 59.050848,156.52496 76.947648,104.07125 120.73978,58.261417 152.92656,9.6548999"
     id="path816"
     inkscape:connector-curvature="0"
     sodipodi:nodetypes="ccc" />
</svg>
