<?xml version="1.0" encoding="UTF-8" standalone="no"?>
<svg
   xmlns:dc="http://purl.org/dc/elements/1.1/"
   xmlns:cc="http://creativecommons.org/ns#"
   xmlns:rdf="http://www.w3.org/1999/02/22-rdf-syntax-ns#"
   xmlns:svg="http://www.w3.org/2000/svg"
   xmlns="http://www.w3.org/2000/svg"
   xmlns:sodipodi="http://sodipodi.sourceforge.net/DTD/sodipodi-0.dtd"
   xmlns:inkscape="http://www.inkscape.org/namespaces/inkscape"
   aria-hidden="true"
   focusable="false"
   data-prefix="fas"
   data-icon="house"
   class="svg-inline--fa fa-house fa-w-18"
   role="img"
   viewBox="0 0 576 512"
   version="1.1"
   id="svg4"
   sodipodi:docname="house-help.svg"
   inkscape:version="0.92.4 (5da689c313, 2019-01-14)">
  <metadata
     id="metadata10">
    <rdf:RDF>
      <cc:Work
         rdf:about="">
        <dc:format>image/svg+xml</dc:format>
        <dc:type
           rdf:resource="http://purl.org/dc/dcmitype/StillImage" />
        <dc:title></dc:title>
      </cc:Work>
    </rdf:RDF>
  </metadata>
  <defs
     id="defs8" />
  <sodipodi:namedview
     pagecolor="#ffffff"
     bordercolor="#666666"
     borderopacity="1"
     objecttolerance="10"
     gridtolerance="10"
     guidetolerance="10"
     inkscape:pageopacity="0"
     inkscape:pageshadow="2"
     inkscape:window-width="1920"
     inkscape:window-height="1025"
     id="namedview6"
     showgrid="false"
     inkscape:zoom="0.4609375"
     inkscape:cx="288.43985"
     inkscape:cy="254.61182"
     inkscape:window-x="0"
     inkscape:window-y="27"
     inkscape:window-maximized="1"
     inkscape:current-layer="svg4" />
  <path
     d="M 570.69,236.27 512,184.44 V 48 c 0,-8.836556 -7.16344,-16 -16,-16 h -64 c -8.83656,0 -16,7.163444 -16,16 V 99.67 L 314.76,10.3 C 308.48,4.61 296.51,0 288,0 279.49,0 267.55,4.61 261.27,10.3 l -256,226 c -6.5738745,5.90864 -7.1112086,16.02843 -1.2,22.6 l 21.4,23.8 c 3.195489,3.17689 7.450216,5.06393 11.95,5.3 3.908224,-0.20544 7.650764,-1.64434 10.69,-4.11 l 15.9,-14 V 480 c 0,17.67311 14.326888,32 32,32 H 480 c 17.67311,0 32,-14.32689 32,-32 V 269.87 l 15.91,14 c 3.04872,2.47214 6.80068,3.91762 10.72,4.13 4.47737,-0.24041 8.7066,-2.13234 11.87,-5.31 l 21.41,-23.81 c 2.45442,-3.04793 3.88558,-6.79202 4.09,-10.7 -0.23913,-4.48936 -2.1305,-8.73158 -5.31,-11.91 z"
     id="path2"
     inkscape:connector-curvature="0"
     style="fill:currentColor;opacity:0.394"
     sodipodi:nodetypes="ccssssccscccccccssssccccccc" />
  <path
     inkscape:connector-curvature="0"
     style="fill:#000000;fill-opacity:1;stroke-width:0.61078572"
     d="m 289.9035,147.52542 c -46.84948,0 -77.19402,20.7858 -101.01758,57.85551 -4.32169,6.72457 -2.98932,15.94449 3.0392,20.89449 l 25.3197,20.78961 c 6.08839,4.99895 14.75113,3.8301 19.51774,-2.63643 14.7024,-19.94556 25.60846,-31.42945 48.57391,-31.42945 18.05681,0 40.3913,12.58411 40.3913,31.54512 0,14.3339 -10.92717,21.69535 -28.75627,32.51949 -20.7914,12.62289 -48.30509,28.33221 -48.30509,67.63031 v 6.22118 c 0,8.42478 6.30674,15.25424 14.0867,15.25424 h 42.5366 c 7.77997,0 14.08672,-6.82946 14.08672,-15.25424 v -3.66928 c 0,-27.24153 73.52561,-28.37606 73.52561,-102.09344 5.8e-4,-55.51525 -53.17795,-97.62711 -102.99854,-97.62711 z m -5.8818,237.36801 c -22.41899,0 -40.65836,19.75106 -40.65836,44.02818 0,24.27648 18.23937,44.02754 40.65836,44.02754 22.41901,0 40.65838,-19.75106 40.65838,-44.02818 0,-24.27711 -18.23937,-44.02754 -40.65838,-44.02754 z"
     id="path2-3" />
</svg>
